<svg width="371" height="371" viewBox="0 0 371 371" fill="none" xmlns="http://www.w3.org/2000/svg">
<path fill-rule="evenodd" clip-rule="evenodd" d="M287.611 129.497C275.132 125.523 262.122 124.589 249.19 123.194C253.311 122.285 257.772 121.07 261.969 120.604C265.831 120.181 268.129 121.772 271.764 123.038C278.252 125.303 285.499 128.054 291.139 130.685C289.97 130.27 288.793 129.874 287.611 129.497ZM269.839 134.463C256.148 131.905 242.131 131.349 228.46 128.675C231.849 127.637 233.77 126.733 237.373 127.076C242.727 127.584 248.146 128.682 253.379 129.846C260.972 131.538 268.634 133.362 276.032 135.761C273.977 135.283 271.912 134.851 269.839 134.463ZM270.497 137.135C269.56 137.513 266.276 136.23 265.215 136C266.237 136.195 269.898 137.377 270.497 137.135ZM243.238 136.854C232.525 136.182 221.682 135.846 210.95 135.902C212.877 135.182 214.717 134.28 216.594 133.438C221.727 131.138 222.619 131.503 227.743 133.016C234.352 134.968 241.123 136.078 247.9 137.208C246.348 137.064 244.793 136.946 243.237 136.854L243.238 136.854ZM230.736 143.031C215.946 144.153 201.356 145.945 186.592 147.599C189.744 146.326 192.775 144.705 195.786 143.141C200.434 140.728 204.003 141.068 209.184 141.067C214.687 141.063 220.093 141.71 225.564 142.332C226.914 142.487 232.199 142.919 230.736 143.031ZM207.947 131.793C215.844 124.125 224.902 116.98 234.183 111.008C240.073 107.216 246.479 102.935 253.401 106.222C241.953 106.698 226.997 117.081 220.221 125.98C219.896 126.401 219.399 126.693 219.06 127.108C217.788 128.651 219.174 128.82 218.308 129.77C218.207 129.881 213.582 131.77 214.196 131.517C211.058 132.812 207.847 133.898 204.705 135.175C205.768 134.03 206.847 132.901 207.948 131.793L207.947 131.793ZM251.996 113.422C244.223 119.922 235.791 123.381 226.43 126.643C234.979 121.145 243.551 116.648 252.948 112.71C252.63 112.946 252.312 113.183 251.996 113.422L251.996 113.422ZM261.667 115.651C263.287 115.132 264.01 115.267 264.371 117.19C260.184 117.032 258.196 117.605 254.24 118.566C256.646 117.423 259.127 116.45 261.667 115.651ZM266.804 116.701C266.513 116.173 266.388 115.164 266.185 114.649C269.293 114.599 271.933 115.256 274.573 116.885C273.699 116.893 267.02 117.664 266.804 116.7L266.804 116.701ZM140.773 188.852C163.494 186.045 185.285 185.312 208.104 187.536C190.913 189.044 173.649 192.498 156.732 195.852C143.15 198.545 129.377 200 115.756 202.434C118.28 199.806 120.64 197.024 123.211 194.435C127.677 189.939 134.368 189.652 140.773 188.852ZM218.888 195.542C222.99 195.122 227.082 194.613 231.162 194.015C235.597 193.361 242.671 190.437 247.134 191.317C222.77 198.55 196.441 201.884 171.395 205.961C160.984 207.655 150.385 210.133 140.299 213.275C125.738 217.81 109.314 217.788 95.4168 224.159C99.6668 219.705 104.322 213.334 109.164 209.712C112.683 207.078 118.521 206.858 122.707 206.305C129.601 205.396 136.528 204.689 143.44 203.946C168.599 201.234 193.719 198.174 218.888 195.542ZM91.4775 219.668C89.4333 221.917 87.4437 224.216 85.5104 226.561C89.0197 210.102 88.8621 192.744 90.8388 176.034C91.9568 166.586 93.0058 157.032 94.5091 147.646C95.8383 139.359 96.1924 128.067 100.636 120.907C103.952 123.987 106.403 127.256 105.744 131.733C104.897 137.49 102.417 143.024 101.264 148.736C99.9677 155.154 99.0902 161.688 98.289 168.185C97.0566 178.179 96.7689 188.345 97.297 198.393C97.4397 201.218 97.6212 204.04 97.8414 206.86C97.938 208.091 98.5752 210.187 98.3036 211.337C97.6404 214.166 93.6158 217.3 91.4775 219.668ZM115.98 151.136C117.928 141.887 119.115 131.141 123.167 122.471C125.415 117.654 127.578 115.938 130.937 121.143C133.335 124.856 129.568 133.008 128.381 137.676C125.014 150.921 123.236 164.512 121.008 177.98C120.427 181.509 120.254 184.998 119.878 188.532C119.565 191.46 119.646 191.286 117.959 193.492C116.874 194.916 115.163 196.127 113.855 197.376C110.426 200.654 106.949 203.888 103.556 207.202C108.719 188.731 112.04 169.883 115.98 151.136ZM370.001 193.145C366.872 188.983 362.904 185.231 358.845 182.016C353.221 177.556 346.335 174.949 340.719 170.66C335.996 167.05 332.095 162.246 327.268 158.591C319.601 152.788 311.709 147.963 302.73 144.476C314.166 148.378 325.133 153.076 334.293 161.173C335.067 161.859 341.777 170.449 343.165 169.629C344.115 169.074 340.089 162.856 339.25 161.408C333.06 150.76 320.357 143.947 310.319 137.109C298.982 129.386 286.603 125.054 273.686 120.782C285.421 121.431 295.308 124.444 305.138 131.047C309.974 134.293 314.447 138.085 319.431 141.098C323.849 143.771 328.093 146.234 331.906 149.82C336.177 153.84 339.608 158.219 342.442 163.354C343.507 165.285 348.709 176.978 348.849 169.551C348.919 165.891 344.296 160.675 342.425 158.031C339.27 153.575 335.611 149.562 331.781 145.682C325.266 139.088 319.048 132.244 311.315 127.042C306.917 124.081 302.311 121.735 297.279 120.044C293.393 118.737 289.404 117.798 285.326 117.336C281.454 116.898 281.081 116.945 278 114.944C275.352 113.224 273.092 111.383 270.129 110.155C267.11 108.904 264.54 108.724 262.294 107.017C259.644 104.997 258.617 102.629 255.197 101.365C252.053 100.202 248.837 100.458 245.557 100.72C234.709 101.584 223.696 104.335 214.722 110.751C206.791 116.422 201.398 125.473 197.564 134.298C195.447 139.167 196.884 138.985 191.199 141.784C185.222 144.727 179.28 147.62 173.465 150.904C183.052 138.987 191.388 125.793 201.899 114.624C207.519 108.659 213.031 102.596 218.65 96.6344C220.309 94.8776 233.411 82.223 226.052 82.6719C224.35 82.7747 221.791 85.0491 220.227 85.7958C217.106 87.2938 214.007 88.6212 211.122 90.5788C206.122 93.9724 202.04 98.1944 197.95 102.586C187.357 113.96 177.809 126.126 172.921 141.061C171.763 144.596 171.34 148.58 169.527 151.822C168.249 154.11 166.749 154.9 164.155 156.591C159.706 159.484 155.382 162.458 151.169 165.693C161.942 149.738 168.891 131.884 177.379 114.704C188.297 92.616 193.292 67.8266 202.475 45.0047C204.256 40.5781 206.426 35.7071 209.415 31.9393C210.324 30.7934 213.197 29.0756 213.448 27.6308C214.111 23.8194 211.53 24.8427 209.634 25.9388C204.989 28.6239 200.479 34.6803 197.305 38.7628C192.685 44.7007 188.007 51.1422 184.005 57.5399C170.22 79.5749 161.081 104.58 153.489 129.329C149.917 140.963 146.233 152.789 144.476 164.854C143.628 170.68 144.591 170.836 139.724 174.823C134.641 178.989 129.783 183.408 124.74 187.615C129.336 178.178 132.075 166.475 135.392 156.464C138.864 145.976 142.813 135.646 146.342 125.173C152.082 108.132 156.378 90.6849 160.51 73.2011C162.705 63.9053 164.762 54.6023 166.643 45.2409C169.061 33.2111 171.52 19.3204 176.912 8.22348C177.717 6.57309 180.984 -1.09519 176.256 1.54598C174.09 2.75341 171.523 10.6551 170.417 12.7856C164.153 24.8848 158.877 37.1698 154.162 49.9461C145.805 72.6004 139.94 95.8155 133.319 118.982C130.009 114.462 123.136 109.487 117.197 111.411C111.863 113.139 109.239 120.733 107.561 125.489C107.375 122.198 103.337 116.06 100.19 115.85C98.4013 115.731 95.3192 117.425 93.8235 118.133C90.1257 119.881 85.9256 122.092 83.6193 125.533C78.8929 132.592 79.7896 143.67 78.9498 151.84C76.449 176.203 76.8971 199.728 79.6512 223.991C80.2804 229.544 81.0409 232.119 77.8819 236.495C74.2738 241.496 70.7954 246.412 67.2427 251.106C68.3843 248.931 67.3527 242.287 67.3395 239.968C67.3029 233.759 67.3665 227.601 67.6888 221.396C68.3503 208.617 67.6644 195.408 67.0206 182.62C65.6949 156.273 65.8155 130.26 66.7037 103.92C66.8898 98.3686 66.7649 92.8522 66.7309 87.3045C66.7166 85.0141 67.4745 79.4032 63.8365 80.7446C62.7802 81.1337 62.0028 85.2303 61.6961 86.2693C58.8623 95.8466 57.9727 106.207 56.6748 116.043C55.4955 124.99 54.4182 133.95 53.6708 142.94C52.2348 160.211 52.709 176.982 52.7964 194.282C52.8699 208.533 54.415 224.026 57.0493 237.173C58.2846 243.339 60.4318 250.002 61.0572 256.216C61.4367 259.958 59.2467 261.345 56.7321 264.742C54.1874 268.179 51.6739 271.641 49.2453 275.16C49.4794 269.768 47.9425 264.193 47.5818 258.797C47.2795 254.29 46.9931 249.804 46.5872 245.301C46.2645 241.755 45.9604 238.206 45.6462 234.656C44.0267 216.388 42.4452 198.159 39.456 180.059C34.8606 152.263 29.8479 123.697 30.0337 95.4194C30.0706 90.0226 30.2449 84.6296 30.3074 79.2315C30.3533 75.1629 29.9793 71.1265 29.9555 67.0636C29.943 64.9915 30.8871 60.9848 30.1961 58.9201C28.1966 52.9461 26.4643 59.6214 26.4087 62.3649C26.3806 63.8104 26.294 65.2517 26.2719 66.6966C26.1383 75.7756 25.3567 84.7304 24.9084 93.7992C24.2652 106.876 24.8398 119.887 25.2741 132.956C25.7484 147.194 25.392 161.528 26.9224 175.713C28.8963 193.997 32.8491 212.174 35.33 230.409C36.4095 238.351 37.9153 246.204 38.7324 254.183C39.4943 261.639 42.1407 268.969 43.7526 275.857L43.7437 275.329C44.3683 278.257 45.3486 279.721 44.4588 282.407C43.8315 284.295 42.1106 286.279 41.0799 288.013C38.8817 291.701 36.7717 295.431 34.6612 299.169C36.5317 289.681 33.9962 277.711 31.9891 268.391C29.7706 258.078 27.0669 247.516 23.9021 237.459C21.4409 229.638 19.4044 221.951 18.6611 213.81C17.6709 202.967 14.7223 192.541 13.1371 181.799C11.6414 171.658 9.12259 161.615 6.97595 151.576C6.49235 149.316 4.33393 138.506 0.822364 143.382C-0.0434427 144.586 1.01776 147.781 1.15379 149.024C1.488 152.104 1.69625 155.135 1.83447 158.227C2.7306 177.858 6.84175 197.787 10.0641 217.128C12.1232 229.487 14.3038 241.889 17.313 254.052C19.6565 263.522 20.922 273.362 23.5215 282.699C24.7682 287.177 26.0346 291.756 28.0271 295.961C29.7604 299.62 31.5078 300.643 30.8963 304.586C30.0208 310.225 25.2204 316.078 23.0543 321.536C21.2826 326 19.476 330.47 17.7879 334.964C15.4298 341.26 13.2199 347.667 11.151 354.061C9.95017 357.765 7.62091 362.546 7.40281 366.313C7.0705 372.035 10.3093 370.399 12.0101 366.571C13.1541 363.995 14.0676 361.225 15.1437 358.605C23.0395 339.415 30.2692 318.839 42.0589 301.619C46.9767 294.428 60.571 292.696 68.5472 290.189C87.7351 284.15 108.492 283.353 128.401 281.147C144.455 279.37 160.248 277.737 175.965 273.788C178.26 273.214 220.153 260.879 219.102 258.728C219.689 259.935 173.27 270.266 169.553 270.57C157.896 271.52 146.275 271.775 134.593 272.269C105.37 273.506 76.6272 274.208 50.0746 288.016C53.4252 282.746 57.4333 272.797 63.315 270.757C74.6507 266.819 86.5977 264.275 98.018 260.435C109.89 256.45 122.082 253.779 134.023 250.086C145.951 246.395 157.853 242.573 169.962 239.469C182.134 236.351 194.708 233.1 207.356 233.501C212.224 233.656 217.106 234.088 221.953 234.546C223.784 234.719 238.355 237.412 230.476 234.066C225.374 231.897 218.694 231.73 213.228 230.934C206.961 230.025 200.953 229.217 194.618 229.266C180.824 229.373 166.967 232.607 153.634 235.807C137.677 239.634 121.065 243.432 105.832 249.591C91.8719 255.237 77.8399 260.657 63.8788 266.232C66.4175 262.346 69.1176 258.576 71.7589 254.759C73.0417 252.903 74.3952 249.889 76.2166 248.622C78.9964 246.685 84.8454 246.182 88.0741 245.106C101.064 240.787 114.114 235.714 127.425 232.501C148.828 227.334 170.74 224.128 192.275 219.53C204.844 216.848 218.153 214.482 231.004 214.711C235.838 214.799 240.679 214.623 245.425 215.644C247.104 216.003 249.218 216.933 250.948 217.129C256.122 217.709 252.283 215.221 249.144 214.133C224.265 205.519 196.842 212.405 171.764 215.91C155.179 218.226 138.805 220.587 122.97 226.293C108.379 231.548 94.4287 238.557 79.5952 243.171C83.483 237.647 86.9492 231.925 93.1608 228.886C100.035 225.525 107.28 224.063 114.782 222.788C130.379 220.131 145.872 216.729 161.519 214.414C175.894 212.291 190.242 210.406 204.491 207.508C218.364 204.682 232.157 203.031 245.398 197.691C249.59 196 254.673 193.069 259.149 192.813C264.951 192.483 271.976 194.221 277.665 195.082C291.521 197.177 305.904 199.337 318.713 205.202C331.281 210.958 339.815 220.004 349.436 229.461C352.467 232.445 355.45 235.479 358.472 238.471C359.145 239.139 363.162 244.147 363.99 244.21C369.114 244.594 359.448 234.438 357.78 232.357C346.253 217.976 333.779 205.983 316.821 198.148C302.369 191.469 287.26 187.126 271.5 184.902C271.54 182.053 283.151 181.912 283.47 178.961C283.891 175.025 275.766 178.963 274.156 179.448C271.098 180.365 268.124 181.514 265.051 182.383C257.996 184.377 250.189 181.921 243.022 181.001C234.38 179.896 225.625 179.172 216.934 178.649C188.164 176.914 160.56 177.869 132.615 185.578C137.63 181.186 142.861 177.011 148.161 172.97C150.224 171.397 151.797 169.956 154.135 169.218C158.083 167.97 162.771 168.528 166.887 168.124C183.159 166.538 199.357 164.754 215.719 164.252C242.645 163.425 270.72 168.258 296.256 176.818C308.713 180.996 320.935 185.059 331.753 192.75C334.257 194.527 336.484 196.568 338.76 198.623C339.701 199.472 345.446 205.649 345.738 205.617C348.229 205.351 336.676 192.566 334.997 190.933C312.435 169.004 283.16 164.018 253.267 159.615C222.007 155.01 190.631 157.456 159.834 164.404C165.984 160.567 172.028 153.992 178.932 151.76C184.176 150.064 190.832 150.386 196.138 149.843C211.526 148.26 227.655 150.947 243.076 152.039C260.497 153.272 277.42 155.506 294.263 160.147C302.881 162.522 311.274 165.036 319.682 168.12C326.346 170.564 331.783 172.069 337.175 176.535C339.35 178.353 345.82 183.18 349.321 186.463C350.749 187.804 352.228 190.636 353.842 191.309C359.854 193.817 351.875 184.022 350.565 182.321C355.344 185.177 359.805 188.482 364.048 192.002C364.887 192.701 365.69 193.233 366.54 193.87C367.538 194.621 368.06 196.812 369.768 196.082C371.159 195.484 370.665 194.051 370.001 193.145Z" fill="#012A32"/>
</svg>
