<svg width="314" height="287" viewBox="0 0 314 287" fill="none" xmlns="http://www.w3.org/2000/svg">
<path fill-rule="evenodd" clip-rule="evenodd" d="M236.619 136.652C239.33 136.629 242.109 139.325 244.063 140.912C238.98 137.513 230.93 137.635 225.102 136.817C219.431 136.019 213.801 134.822 208.326 133.102C208.206 133.066 196.066 129.091 200.177 126.808C211.549 120.429 225.632 137.217 236.619 136.652ZM157.712 84.3292C159.849 89.5703 169.312 115.236 160.115 117.068C152.796 118.526 146.517 102.907 146.123 97.6878C145.474 88.9976 145.871 80.3261 144.659 71.6475C149.754 75.5534 155.173 78.0376 157.712 84.3292ZM68.3351 243.059C64.8257 247.394 61.2787 251.726 57.4611 255.792C61.4713 250.823 65.2966 245.827 69.8055 241.293L68.3341 243.059L68.3351 243.059ZM304.173 42.902C302.248 40.4198 294.728 43.4523 292.575 43.9392C286.67 45.2717 280.278 46.4563 274.88 44.1197C270.249 42.9558 277.745 34.9254 278.918 31.8534C279.741 29.6996 281.457 24.2392 280.031 22.0434C276.974 17.3392 270.576 22.8528 267.39 25.0257C262.724 28.2093 260.794 30.2705 261.601 24.4272C262.47 18.1462 269.053 7.5668 262.393 2.0028C256.719 -2.73556 247.902 6.26186 244.475 9.87655C238.011 16.6833 235.011 24.3832 233.632 33.5481C233.31 35.6847 230.836 48.3199 228.664 46.0937C224.331 40.525 227.761 32.3492 224.34 26.3482C222.394 22.9379 219.716 21.2473 218.081 17.4101C216.466 13.6218 214.835 6.82984 209.613 6.41855C206.298 6.15878 204.108 8.90136 203.561 11.6357C201.824 18.0475 203.131 23.8206 203.019 30.3138C202.935 35.0651 199.812 38.6374 200.973 43.5259C202.844 50.9772 205.286 58.7916 206.549 66.5513C206.946 68.9834 208.288 80.0562 203.525 77.8913C200.843 76.6725 201.121 66.3114 200.938 64.4905C200.501 60.1397 200.565 55.7976 197.946 52.0289C196.445 49.8684 193.955 49.037 192.796 47.3411C189.373 42.3264 189.605 33.8262 186.778 28.3183C184.241 23.3762 177.52 11.3955 171.619 10.2234C163.54 8.61782 166.579 19.6162 167.106 24.4395C167.692 29.7795 168.589 34.65 168.115 39.8601C167.7 44.4597 168.029 48.1873 169.793 52.6554C173.05 60.9105 177.958 68.0303 182.076 75.5512C182.068 75.5226 182.058 75.4946 182.046 75.4673C184.358 79.8822 186.282 85.3559 186.066 90.4607C185.704 99.0183 182.742 94.6611 180.142 88.8373C176.219 80.0575 173.662 70.669 169.786 61.8904C168.406 58.7633 166.75 55.5894 163.871 53.5508C161.939 52.1834 159.549 52.5151 158.05 51.687C152.832 48.8134 133.622 16.2526 125.556 25.9586C121.2 31.1991 132.015 42.4022 134.295 46.3223C137.936 52.5833 141.8 56.9033 141.431 64.3346C139.314 62.3676 136.402 63.3929 134.466 61.8306C132.166 59.9717 131.521 56.0291 130.444 53.4509C127.483 46.3631 123.997 39.3839 119.364 33.2688C105.226 14.6105 107.604 42.8169 109.004 52.1321C109.273 53.919 109.587 56.2012 109.866 58.2358C110.588 63.572 109.347 64.4385 108.584 69.1554C107.287 77.181 116.748 87.7687 121.637 93.5179C123.144 95.2939 146.394 124.103 136.201 123.862C131.062 123.741 122.397 109.128 119.998 104.642C116.31 97.7445 113.777 83.9625 106.119 80.3844C103.713 79.2606 101.726 80.4423 99.4973 79.5556C94.2897 77.4907 90.7564 69.3379 86.9899 65.5227C79.324 57.7585 69.905 58.8374 76.3183 71.434C78.8577 76.4182 80.1172 79.7445 81.6767 85.1693C83.4565 91.3577 89.0442 94.5464 91.6162 99.9678C93.741 104.449 90.4341 102.052 90.6256 107.385C90.7865 111.813 97.6548 116.657 100.887 119.121C105.377 122.542 125.617 134.008 121.649 140.926C118.032 147.233 106.233 137.725 103.078 134.833C95.1857 127.599 92.0382 117.833 87.5988 108.464C85.4353 103.897 82.959 98.3546 79.4181 94.6577C76.3132 91.4189 72.7799 90.9755 68.9327 89.3015C64.4529 87.3536 44.7077 76.9661 45.618 89.5192C46.2295 97.9531 57.9796 102.037 59.4484 110.088C54.163 107.733 43.1001 97.027 36.8022 102.655C30.7227 108.089 42.7865 119.819 46.4611 124.253C48.7162 126.971 64.1553 139.207 63.8953 143.792C63.623 148.58 58.0825 146.865 54.8813 146.23C49.4062 145.145 0.379362 133.076 0.597336 143.068C0.763891 150.817 19.6161 148.195 22.0518 152.588C22.9474 154.203 20.9981 154.99 20.653 156.713C19.3907 163.03 21.4842 165.554 28.1171 166.246C21.818 181.342 42.6726 173.332 49.6835 170.924C54.4592 169.284 74.779 161.853 76.1856 172.049C76.6588 175.477 70.9196 180.876 69.9416 184.229C68.0569 190.699 72.8081 194.669 79.049 192.48C83.3432 190.977 87.2436 187.175 89.9985 183.652C91.5823 181.632 94.3801 174.979 97.0215 174.518C96.7583 185.468 103.146 179.807 108.972 175.101C113.33 171.581 124.186 162.012 130.663 165.818C125.591 172.857 118.662 178.462 113.122 185.108C107.059 192.388 100.749 199.187 93.7557 206.068C80.4934 219.114 67.2004 233.335 55.5317 247.756C49.8239 254.809 43.643 261.53 37.5247 268.228C35.316 270.642 21.4516 281.478 26.3102 285.88C32.8825 291.834 44.291 269.32 48.9824 266.714C71.2843 241.347 95.0519 217.263 116.669 191.41C115.779 194.326 116.754 202.551 121.163 202.411C120.124 204.808 117.007 208.461 117.731 211.205C119.337 217.276 121.794 211.806 124.072 212.162C127.963 212.772 124.768 219.789 124.048 222.648C120.687 235.974 120.056 250.536 119.19 264.244C118.716 271.765 125.039 292.586 135.718 283.674C141.05 279.227 141.601 268.093 141.94 261.86C142.156 257.928 140.36 247.01 143.088 243.608C147.605 245.996 153.025 256.735 155.925 260.581C162.054 268.716 167.418 273.888 178.069 274.583C203.374 276.236 172.729 247.496 175.783 245.571C177.932 244.217 192.748 256.716 194.708 258.208C199.051 261.517 212.282 269.588 217.139 262.818C221.213 257.139 210.793 247.632 207.701 243.974C205.107 240.906 203.171 236.707 199.925 233.617C197.254 231.075 193.677 229.628 191.032 227.208C188.282 224.692 188.122 221.071 185.056 218.192C181.616 214.957 176.938 212.256 173.151 209.312C166.821 204.392 157.865 197.997 157.123 189.068C171.583 190.863 181.458 206.606 191.33 215.754C196.268 220.329 202.082 226.198 209.233 224.64C212.105 224.013 209.03 223.454 212.875 223.189C213.738 223.129 214.907 223.634 215.743 223.83C221.737 225.241 227.479 227.427 233.423 228.99C237.11 229.962 248.939 234.278 252.244 230.731C258.237 224.297 232.361 208.132 227.787 204.548C224.326 201.84 220.163 199.522 216.897 196.71C213.899 194.128 212.891 190.685 208.859 188.784C203.639 186.323 197.57 185.479 192.128 183.631C184.808 181.146 178.714 177.5 172.621 172.816C170.097 170.875 163.972 166.7 165.296 163.188C167.427 157.548 177.035 164.756 179.757 166.3C187.818 170.876 195.361 178.169 205.329 181.177C215.64 184.293 220.936 194.425 230.43 198.961C233.86 200.598 235.791 200.754 239.407 200.088C243.43 199.351 245.337 198.883 250.064 200.085C254.348 201.176 275.019 207.891 273.446 198.25C272.937 195.122 268.403 193.831 266.105 192.553C261.042 189.733 256.125 186.624 250.994 183.929C247.736 182.218 243.595 181.037 240.928 178.384C238.398 175.866 237.833 173.304 234.194 171.665C229.295 169.457 221.929 169.813 217.638 166.827C213.545 163.981 210.31 159.892 205.624 157.265C201.895 155.176 180.765 147.354 181.343 143.862C182.515 136.763 206.311 150.33 208.144 151.326C219.823 157.673 231.277 166.136 243.266 172.114C247.296 174.122 250.423 173.374 254.136 173.919C259.067 174.643 264.219 178.031 269.227 179.204C273.218 180.139 283.657 182.581 281.62 175.63C280.15 170.607 270.6 166.279 266.607 163.238C262.092 159.804 257.888 156.086 252.998 153.181C251.947 152.555 249.629 151.765 248.858 150.901C246.727 148.503 248.138 144.852 245.575 142.155C248.266 144.742 250.92 146.084 254.572 146.12C255.525 146.132 257.361 145.11 258.558 144.961C262.169 144.509 266.422 145.719 270.038 146.13C275.118 146.699 300.716 145.971 287.53 136.997C281.894 133.161 275.556 130.253 269.28 127.681C264.348 125.658 257.89 124.174 253.734 120.779C249.427 117.259 248.637 115.442 242.376 114.512C235.942 113.556 226.864 113.745 221.805 109.104C211.501 99.645 245.819 105.994 249.468 106.916C256.84 108.777 264.81 110.237 272.348 108.572C280.752 106.716 287.712 102.731 296.551 102.327C300.493 102.15 313.406 102.554 313.18 96.2214C312.959 89.9857 298.516 89.5713 294.684 88.803C290.724 88.0099 286.225 87.7396 282.419 86.5801C278.966 85.5256 276.33 83.2979 272.965 81.9988C263.425 78.3113 255.319 83.0152 245.807 82.5736C240.785 82.3401 238.391 80.3648 243.64 76.7781C246.472 74.839 251.021 74.6582 254.36 73.7195C259.382 72.3091 264.326 70.5105 269.284 68.8814C275.974 66.68 313.541 54.9001 304.173 42.902Z" fill="#89B99A"/>
</svg>
